<?xml version="1.0" encoding="utf-8"?>
<!-- Generator: Adobe Illustrator 16.0.0, SVG Export Plug-In . SVG Version: 6.00 Build 0)  -->
<!DOCTYPE svg PUBLIC "-//W3C//DTD SVG 1.1//EN" "http://www.w3.org/Graphics/SVG/1.1/DTD/svg11.dtd">
<svg version="1.1" id="Layer_1" xmlns="http://www.w3.org/2000/svg" xmlns:xlink="http://www.w3.org/1999/xlink" x="0px" y="0px"
	 width="348px" height="306.14px" viewBox="0 0 348 306.14" enable-background="new 0 0 348 306.14" xml:space="preserve">
<g>
	<g>
		<g>
			<path fill="#597936" d="M310.103,274.08v-5.697v-16.21h-21.906v-21.024v-0.879h-21.898h-25.193H132.246v-21.465h-21.9v-82.791
				v-6.135V99.291v-1.318v-6.78v-15.12V54.166h10.949V32.265V10.358H99.388h-21.9v21.906v21.901h10.951v21.906v15.12v6.78H66.535
				H44.63v-21.9V54.166h10.955V32.265V10.358h-21.91H11.773v21.906v21.901h10.951v21.906v21.9v1.318v1.662v12.349v6.577v88.926
				v21.465v0.441v21.462H44.63v21.907h21.904v21.9h223.635h19.934h21.902v-21.9H310.103z M22.724,43.215v-21.9H44.63v21.9H22.724z
				 M88.439,141.785H44.63v-21.906h43.809V141.785z M88.439,21.314h21.906v21.9H88.439V21.314z"/>
		</g>
	</g>
	<g>
		<g>
			<polygon fill="#5D432E" points="265.404,186.906 265.404,170.691 169.935,170.691 169.935,112.43 231.91,112.43 231.91,140.906 
				217.017,140.906 217.017,127.322 184.828,127.322 184.828,155.799 265.404,155.799 265.404,144.412 265.404,143.094 
				265.404,122.51 265.404,100.604 243.519,100.604 243.519,78.701 154.923,78.701 154.923,100.604 133.011,100.604 133.011,122.51 
				133.011,143.094 133.011,144.412 133.011,165.001 133.011,186.906 154.923,186.906 154.923,208.805 243.519,208.805 
				265.404,208.805 287.308,208.805 287.308,186.906 			"/>
		</g>
	</g>
</g>
<g>
	<polygon fill="#44602D" points="133,274 133,252 67,252 67,231 44.63,231 23,231 23,252 45,252 45,274 67,274 67,296 332,296 
		332,274 	"/>
</g>
<g>
	<g>
		<rect x="155" y="187" fill="#4A2E18" width="132" height="22"/>
	</g>
	<g>
		<rect x="133" y="101" fill="#4A2E18" width="22" height="86"/>
	</g>
	<g>
		<polygon fill="#4A2E18" points="265,144.152 265,140.875 265,124 248,124 248,141 232,141 232,156 265,156 		"/>
	</g>
</g>
<g>
	<polygon fill="#44602D" points="133,274 133,252 67,252 67,231 44.63,231 23,231 23,252 45,252 45,274 67,274 67,296 332,296 
		332,274 	"/>
</g>
<g>
	<g>
		<rect x="155" y="187" fill="#4A2E18" width="132" height="22"/>
	</g>
	<g>
		<rect x="133" y="101" fill="#4A2E18" width="22" height="86"/>
	</g>
	<g>
		<polygon fill="#4A2E18" points="265,144.152 265,140.875 265,124 248,124 248,141 232,141 232,156 265,156 		"/>
	</g>
</g>
</svg>
