<?xml version="1.0" standalone="no"?>
<!DOCTYPE svg PUBLIC "-//W3C//DTD SVG 20010904//EN"
 "http://www.w3.org/TR/2001/REC-SVG-20010904/DTD/svg10.dtd">
<svg version="1.0" xmlns="http://www.w3.org/2000/svg"
 width="344.000000pt" height="344.000000pt" viewBox="0 0 344.000000 344.000000"
 preserveAspectRatio="xMidYMid meet">
<metadata>
Created by potrace 1.11, written by Peter Selinger 2001-2013
</metadata>
<g transform="translate(0.000000,344.000000) scale(0.100000,-0.100000)"
fill="#000000" stroke="none">
<path d="M92 2916 l3 -221 35 -2 c19 -1 43 -2 53 -2 16 -1 17 -55 17 -989 l0
-989 108 1 107 0 3 -111 3 -110 107 0 107 1 3 -111 3 -110 1329 0 1330 0 0
114 0 113 -110 0 -110 0 0 110 0 110 -110 0 -110 0 0 109 0 108 -763 1 c-419
0 -770 1 -779 1 -16 1 -18 13 -18 106 l0 105 -108 0 -108 0 0 773 1 772 53 -3
52 -3 0 224 0 224 -220 0 -220 -1 0 -222 0 -222 43 0 c23 0 48 -1 55 -1 9 -1
12 -51 12 -216 l0 -215 -215 0 -215 0 -1 28 c-5 159 -2 395 5 400 5 3 30 6 55
6 l46 1 0 220 0 220 -223 1 -222 1 2 -221z m328 -1 l0 -105 -107 0 -108 0 2
93 c0 50 1 98 2 105 1 9 29 12 106 12 l105 0 0 -105z m660 0 l0 -105 -108 0
-108 0 -1 98 c0 53 1 100 4 105 2 4 51 7 109 7 l104 0 0 -105z m-222 -987 l3
-108 -216 0 c-198 0 -215 1 -216 18 -2 60 -4 194 -2 196 2 1 98 2 215 2 l213
-1 3 -107z"/>
<path d="M1559 2452 l-36 -3 1 -107 0 -107 -89 -1 c-50 -1 -99 -2 -110 -3 -20
-1 -20 -6 -21 -431 0 -379 2 -430 16 -431 8 -1 56 -1 105 -2 50 0 92 -4 95 -8
3 -5 5 -53 4 -109 -1 -68 2 -100 10 -101 16 0 1267 0 1294 0 21 1 22 4 22 111
l0 110 -109 0 -109 0 2 71 c0 39 -2 76 -5 81 -5 7 -161 11 -477 11 l-471 -1
-3 37 c-2 20 -2 150 0 289 l3 252 303 0 c234 0 305 -3 308 -12 2 -7 4 -69 3
-138 l-1 -125 -72 -3 -72 -3 0 69 0 68 -152 -2 c-84 0 -158 -2 -164 -3 -14 -1
-13 -281 1 -282 70 -6 788 -2 793 5 10 17 8 546 -3 547 -5 1 -55 2 -110 3
l-100 1 0 108 c0 100 -1 107 -20 108 -75 2 -807 3 -836 1z"/>
</g>
</svg>
